<svg xmlns="http://www.w3.org/2000/svg" width="112" height="112" fill="none" viewBox="0 0 112 112">
  <path fill="#EE3F2A" fill-opacity=".1" d="M60.87 103.413c25.135 0 45.511-20.308 45.511-45.36 0-25.051-20.376-45.36-45.511-45.36-25.136 0-45.512 20.309-45.512 45.36 0 25.052 20.376 45.36 45.512 45.36Z"/>
  <path fill="#000" d="M56.991 11.973 20.977 40.857v46.69a7.467 7.467 0 0 0 7.466 7.466h66.198a7.467 7.467 0 0 0 7.467-7.466v-46.69L66.353 11.988a7.467 7.467 0 0 0-9.362-.015Z"/>
  <rect width="57.99" height="71.947" x="32.683" y="20.886" fill="url(#a)" rx="8.96"/>
  <path fill="#EE3F2A" d="M37.673 31.733c0-.824.67-1.493 1.498-1.493h43.623c.828 0 1.498.669 1.498 1.493 0 .825-.67 1.494-1.498 1.494H39.171a1.496 1.496 0 0 1-1.498-1.494Z"/>
  <path fill="#D5D5D5" d="M37.673 41.44c0-.825.67-1.493 1.498-1.493h43.623c.828 0 1.498.668 1.498 1.493 0 .825-.67 1.493-1.498 1.493H39.171a1.496 1.496 0 0 1-1.498-1.493Zm0 9.707c0-.825.67-1.494 1.498-1.494h43.623c.828 0 1.498.669 1.498 1.494 0 .824-.67 1.493-1.498 1.493H39.171a1.496 1.496 0 0 1-1.498-1.493Zm0 9.706c0-.824.67-1.493 1.498-1.493h43.623c.828 0 1.498.669 1.498 1.493 0 .825-.67 1.494-1.498 1.494H39.171a1.496 1.496 0 0 1-1.498-1.494Z"/>
  <path fill="#1D267B" fill-rule="evenodd" d="M20.977 40.78v46.767a7.467 7.467 0 0 0 7.466 7.466h45.389c7.27 0 10.253-9.335 4.328-13.55L20.977 40.78Z" clip-rule="evenodd"/>
  <path fill="#2A3890" fill-rule="evenodd" d="M102.108 40.78v46.767a7.467 7.467 0 0 1-7.467 7.466H27.976l74.132-54.233Z" clip-rule="evenodd"/>
  <path fill="#1D267B" fill-rule="evenodd" d="m102.261 41.483-71.488 53.53H27.79l73.592-54.736.879 1.206Z" clip-rule="evenodd"/>
  <path fill="#EE3F2A" stroke="#000" stroke-width=".373" d="M8.946 78.86a.446.446 0 0 0 .554.305l-.554-.304Zm0 0-.18.053c-.57-1.962-1.692-3.492-3.413-4.6m3.593 4.548-.18.051a.635.635 0 0 0 1.217-.355c-.658-2.26-1.958-4.033-3.945-5.312l-.685 1.069m0 0a.635.635 0 0 1-.19-.877m.19.877-.19-.877m0 0a.632.632 0 0 1 .875-.192l-.875.192Z"/>
  <path fill="#EE3F2A" fill-rule="evenodd" d="M29.042 76.141c.347.41.659.85.923 1.32.118.21.326.654.358 1.035.036.406-.102.748-.456.929-.47.239-.846.214-1.136.07-.279-.14-.497-.413-.635-.78-.263-.699-.223-1.769-.086-2.38a8.658 8.658 0 0 0-1.21-1.038c-3.238-2.3-7.988-1.452-11.642 1.987-1.279 1.204-1.894 3.732-2.214 6.46-.5 4.248-.215 8.992-.176 10.382.01.343-.023.547-.04.588a.427.427 0 0 1-.337.272.557.557 0 0 1-.367-.053.576.576 0 0 1-.288-.377 1.57 1.57 0 0 1-.03-.4c.003-.106.025-.223.003-.299-.14-.488-.307-.965-.472-1.445-.549-1.613-1.26-3.126-2.048-4.636-2.506-4.8-4.93-9.87-9.039-13.527a.449.449 0 0 1 .594-.67c4.191 3.728 6.681 8.887 9.237 13.781.671 1.285 1.287 2.572 1.798 3.917-.052-2.38-.032-5.676.403-8.592.386-2.593 1.121-4.885 2.364-6.055 4.004-3.767 9.225-4.584 12.77-2.065.38.27.74.567 1.077.888 1.855-3.358 5.826-4.703 9.336-3.097a.449.449 0 0 1-.373.815c-3.162-1.447-6.748-.156-8.314 2.97Zm-.259 1.124c.145.205.28.418.404.638.066.118.181.345.23.567.01.052.012.133.012.17-.124.062-.22.091-.299.052-.098-.05-.148-.164-.197-.292-.121-.322-.16-.748-.15-1.135Zm69.91-53.766c.454-1.833.424-3.599.478-5.458a.66.66 0 0 0-1.32-.037c-.051 1.763-.01 3.44-.44 5.182a.66.66 0 0 0 1.283.313Zm3.855 3.553c3.078-2.796 5.978-6.393 8.005-10.024a.654.654 0 0 0-.257-.893.663.663 0 0 0-.898.256c-1.96 3.512-4.765 6.99-7.741 9.692a.654.654 0 0 0-.042.927.663.663 0 0 0 .933.042Zm.78 3.053c2.815.462 5.716-.325 8.276-1.439a.656.656 0 1 0-.529-1.203c-2.332 1.015-4.968 1.767-7.532 1.348a.657.657 0 1 0-.215 1.295ZM22.016 17.03c.401-.143.823-.332 1.149-.606.386-.326.544-.745.649-1.186.136-.567.19-1.171.354-1.74.061-.21.178-.29.228-.325a.562.562 0 0 1 .377-.105c.143.01.34.065.469.304a.614.614 0 0 1 .058.158c.012.052.02.216.032.284.031.166.057.332.082.5.08.556.128 1.029.385 1.54.349.695.698 1.12 1.172 1.308.458.181 1.006.147 1.706.005.067-.017.133-.03.198-.042a.575.575 0 0 1 .223 1.127 8.002 8.002 0 0 1-.19.04c-.945.233-2.04 1.066-2.677 1.796-.196.224-.483.853-.776 1.254-.216.296-.46.491-.663.56a.6.6 0 0 1-.348.016.588.588 0 0 1-.34-.227.644.644 0 0 1-.114-.264 1.96 1.96 0 0 1-.011-.25c-.06-.205-.133-.405-.186-.612-.127-.493-.377-.805-.673-1.217a2.31 2.31 0 0 0-1.01-.821 8.054 8.054 0 0 1-.675-.19.719.719 0 0 1-.39-.336.642.642 0 0 1-.063-.374.611.611 0 0 1 .214-.394.753.753 0 0 1 .344-.162c.118-.025.432-.04.476-.041Zm2.684-.803.068.142c.51 1.017 1.082 1.584 1.776 1.86l.024.009a7.745 7.745 0 0 0-1.207 1.096c-.132.151-.307.466-.496.79-.172-.558-.453-.951-.807-1.444a3.408 3.408 0 0 0-.901-.89c.27-.138.527-.3.752-.489.373-.314.62-.679.791-1.074Z" clip-rule="evenodd"/>
  <defs>
    <linearGradient id="a" x1="61.678" x2="61.678" y1="20.886" y2="92.833" gradientUnits="userSpaceOnUse">
      <stop stop-color="#fff"/>
      <stop offset=".719" stop-color="#EAEAEA"/>
    </linearGradient>
  </defs>
</svg>
