<svg width="1651" height="434" viewBox="0 0 1651 434" fill="none" xmlns="http://www.w3.org/2000/svg">
<g clip-path="url(#clip0_15_93)">
<path d="M806.054 294.172V339.496H603.472V301.112L697.823 182.258C702.137 177.007 707.612 170.379 714.247 162.374C720.882 154.369 725.427 148.819 727.883 145.726C720.488 146.024 704.146 146.174 678.855 146.174H605.792V100.85H800.498V139.254L706.147 258.109L689.723 278.033C683.115 286.052 678.57 291.601 676.087 294.681C683.495 294.369 699.838 294.213 725.115 294.213L806.054 294.172Z" fill="#282828"/>
<path d="M1121.47 100.85H1183.91L1105.29 339.496H1044.23L1014.17 241.4C1002.76 201.307 995.977 177.563 993.82 170.169C992.884 173.561 986.256 197.304 973.936 241.4L944.324 339.435H883.269L804.65 100.85H867.089L893.913 190.113C900.697 211.401 908.559 238.998 917.5 272.905C926.13 238.673 933.687 210.92 940.172 189.645L966.63 100.85H1022.13L1048.48 189.645C1054.98 210.933 1062.54 238.686 1071.16 272.905C1079.18 242.377 1087.04 214.78 1094.74 190.113L1121.47 100.85Z" fill="#282828"/>
<path d="M1337.44 339.496C1334.64 334.57 1332.49 324.863 1330.97 310.372C1314.93 333.438 1289.33 344.97 1254.18 344.97C1227.98 344.97 1207.09 338.648 1191.52 326.002C1175.94 313.357 1168.15 295.787 1168.15 273.291C1168.15 229.874 1198.68 205.052 1259.74 198.824L1295.82 195.588C1307.83 194.041 1316.48 191.192 1321.71 187.02C1326.94 182.848 1329.58 176.62 1329.58 168.296C1329.58 158.12 1326.27 150.658 1319.63 145.909C1313 141.16 1301.82 138.772 1286.09 138.745C1269.13 138.745 1256.92 141.595 1249.46 147.293C1242 152.992 1237.68 162.781 1236.52 176.661H1179.16C1182.56 122.389 1218.32 95.2535 1286.46 95.2535C1352.74 95.2535 1385.88 119.147 1385.9 166.933V294.111C1385.9 315.073 1389.13 330.181 1395.61 339.435L1337.44 339.496ZM1312.47 288.392C1323.87 278.379 1329.57 263.97 1329.58 245.165V223.409C1324.02 228.348 1314.92 231.59 1302.29 233.137L1270.83 236.821C1255.42 238.68 1244.4 242.302 1237.78 247.689C1231.16 253.075 1227.84 260.863 1227.82 271.052C1227.82 281.228 1231.29 289.166 1238.22 294.864C1245.16 300.563 1255.1 303.419 1268.06 303.432C1286.31 303.432 1301.11 298.419 1312.47 288.392Z" fill="#282828"/>
<path d="M1622.32 129.078C1641.44 151.899 1651 182.264 1651 220.173C1651 257.81 1641.44 288.026 1622.32 310.82C1602.9 333.627 1576.84 345.038 1544.15 345.052C1511.79 345.052 1487.13 332.874 1470.15 308.52V430.143H1411.89V100.85H1467.85V135.082C1485.11 108.57 1510.55 95.3145 1544.15 95.3145C1576.84 95.3145 1602.9 106.569 1622.32 129.078ZM1530.29 296.96C1549.4 296.96 1564.5 290.02 1575.62 276.14C1586.4 262.573 1591.8 243.299 1591.8 218.321C1591.8 193.98 1586.48 175.406 1575.84 162.598C1565.2 149.79 1550.02 143.392 1530.29 143.406C1510.85 143.406 1495.74 150.034 1484.97 163.29C1474.2 176.545 1468.77 195.507 1468.69 220.173C1468.69 245.165 1474.24 264.126 1485.34 277.056C1495.88 290.326 1510.86 296.96 1530.29 296.96Z" fill="#282828"/>
<path d="M447.903 433.948C353.063 312.143 254.866 304.816 121.602 335.954L417.192 117.641L447.903 433.948Z" fill="#2A3890"/>
<path d="M326.362 98.9372L30.7109 317.17L0 0.861816C94.8394 122.688 193.037 130.014 326.362 98.9372Z" fill="#EE3F2A"/>
</g>
<defs>
<clipPath id="clip0_15_93">
<rect width="1651" height="433.066" fill="white" transform="translate(0 0.861816)"/>
</clipPath>
</defs>
</svg>
