<svg width="560" height="560" viewBox="0 0 560 560" fill="none" xmlns="http://www.w3.org/2000/svg">
<circle cx="294.5" cy="261.5" r="175.5" fill="#F1F3FF"/>
<circle cx="130" cy="143" r="11" fill="#F1F3FF"/>
<circle cx="414.5" cy="99.5" r="20.5" fill="#F1F3FF"/>
<circle cx="133.5" cy="374.5" r="19.5" fill="#F1F3FF"/>
<circle cx="482.5" cy="355.5" r="19.5" fill="#F1F3FF"/>
<circle cx="444.5" cy="377.5" r="9.5" fill="#F1F3FF"/>
<path d="M318.525 90.537C317.946 90.4137 317.946 89.5863 318.525 89.463L327.291 87.5989C327.502 87.554 327.668 87.3894 327.713 87.1783L329.601 78.4744C329.726 77.8975 330.549 77.8975 330.674 78.4744L332.561 87.1783C332.607 87.3894 332.772 87.554 332.984 87.5989L341.749 89.463C342.329 89.5863 342.329 90.4137 341.749 90.537L332.984 92.4011C332.772 92.446 332.607 92.6106 332.561 92.8217L330.674 101.526C330.549 102.103 329.726 102.103 329.601 101.526L327.713 92.8217C327.668 92.6106 327.502 92.446 327.291 92.4011L318.525 90.537Z" fill="#C4CBF5"/>
<path d="M347.223 398.622C347.447 397.565 348.956 397.565 349.18 398.622L352.522 414.415C352.604 414.799 352.903 415.101 353.288 415.185L368.917 418.589C369.967 418.818 369.967 420.315 368.917 420.544L353.288 423.948C352.903 424.032 352.604 424.334 352.522 424.718L349.18 440.511C348.956 441.568 347.447 441.568 347.223 440.511L343.88 424.718C343.799 424.334 343.499 424.032 343.115 423.948L327.485 420.544C326.436 420.315 326.436 418.818 327.485 418.589L343.115 415.185C343.499 415.101 343.799 414.799 343.88 414.415L347.223 398.622Z" fill="#C4CBF5"/>
<path d="M481.345 140.622C481.568 139.565 483.078 139.565 483.301 140.622L485.251 149.835C485.333 150.22 485.633 150.521 486.017 150.605L495.161 152.597C496.21 152.826 496.21 154.323 495.161 154.551L486.017 156.543C485.633 156.627 485.333 156.928 485.251 157.313L483.301 166.526C483.078 167.583 481.568 167.583 481.345 166.526L479.395 157.313C479.313 156.928 479.014 156.627 478.629 156.543L469.485 154.551C468.436 154.323 468.436 152.826 469.485 152.597L478.629 150.605C479.014 150.521 479.313 150.22 479.395 149.835L481.345 140.622Z" fill="#C4CBF5"/>
<path d="M491.659 333.331L494.721 347.798L508.982 350.905L494.721 354.011L491.659 368.479L488.596 354.011L474.336 350.905L488.596 347.798L491.659 333.331Z" fill="white"/>
<path d="M270.308 296.62L268.543 297.188L269.958 298.243L282.135 307.321L282.142 307.327L282.15 307.333C289.224 312.512 291.962 316.136 291.5 318.444L291.496 318.462L291.494 318.48C291.189 320.741 288.071 323.024 281.218 325.227C276.575 326.719 272.166 326.932 267.861 326.137C263.431 325.319 258.568 323.336 253.307 319.896C251.495 318.711 250.274 317.819 249.57 317.198L249.527 317.161L249.481 317.124L238.595 308.611L236.965 307.336L234.857 308.014C207.222 316.895 186.182 323.575 171.733 328.056L171.72 328.06L171.708 328.064C168.182 329.197 163.583 329.329 157.571 328.28C151.698 327.255 146.234 325.164 141.179 321.858C138.205 319.913 135.658 317.64 133.564 315.024C120.573 298.391 108.813 278.48 98.2963 255.277C96.0874 250.353 95.6916 246.72 96.8513 244.267L96.8536 244.263L96.8558 244.258C97.9905 241.751 102.074 239.23 109.718 236.773C113.66 235.506 117.053 235.188 119.95 235.512L120.005 235.518L120.059 235.523C123.249 235.813 125.855 236.636 128.053 238.073C130.558 239.711 132.283 241.653 133.154 243.941L133.161 243.96L133.17 243.979C144.494 269.62 155.587 289.754 166.462 304.35L167.779 306.117L170.498 305.243L214.526 291.093L216.2 290.555L214.955 289.532C201.712 278.649 190.082 267.989 180.059 257.551C176.547 253.829 175.268 250.725 175.939 248.172L175.943 248.154L175.947 248.136C176.453 245.558 179.359 243.318 185.119 241.467C189.749 239.979 193.749 239.555 197.169 239.894C200.494 240.224 203.822 241.334 207.18 243.53C209.305 244.919 210.607 245.956 211.249 246.677L211.286 246.719L211.33 246.761C222.166 257.202 233.971 267.902 246.742 278.862L248.334 280.228L250.55 279.516L260.842 276.208C265.669 274.657 269.84 274.2 273.404 274.541C276.863 274.871 280.293 276.006 283.727 278.252C289.486 282.018 291.206 284.912 290.016 287.15C288.736 289.559 284.38 292.098 276.312 294.691L270.308 296.62Z" fill="#C4CBF5" stroke="#C4CBF5" stroke-width="4"/>
<path d="M469.019 231.364L467.253 231.932L468.668 232.987L476.196 238.599L476.203 238.605L476.211 238.611C480.561 241.795 482.043 243.888 481.795 245.129L481.791 245.147L481.788 245.166C481.624 246.383 479.924 247.712 475.763 249.049C473.049 249.921 470.606 250.009 468.305 249.584C465.878 249.136 463.057 248.018 459.875 245.937C458.767 245.213 458.053 244.689 457.66 244.342L457.617 244.304L457.57 244.268L450.841 239.005L449.211 237.73L447.103 238.408C430.02 243.898 417.018 248.026 408.09 250.794L408.077 250.798L408.065 250.803C406.14 251.421 403.6 251.515 400.105 250.905C396.748 250.319 393.566 249.117 390.559 247.15C388.799 246 387.278 244.646 386.017 243.072C378.013 232.824 370.758 220.543 364.265 206.218C362.913 203.203 362.701 201.039 363.374 199.616L363.376 199.611L363.379 199.606C364.018 198.195 366.361 196.701 371.022 195.204C373.363 194.451 375.234 194.309 376.692 194.472L376.746 194.478L376.801 194.483C378.478 194.636 379.816 195.055 380.99 195.823C382.408 196.75 383.408 197.863 383.92 199.206L383.927 199.225L383.936 199.244C390.94 215.105 397.81 227.579 404.56 236.637L405.877 238.405L408.595 237.531L435.813 228.784L437.487 228.245L436.242 227.222C428.075 220.511 420.905 213.939 414.729 207.506C412.618 205.269 411.896 203.452 412.28 201.989L412.285 201.971L412.288 201.953C412.572 200.507 414.202 199.208 417.634 198.105C420.408 197.213 422.665 197.006 424.453 197.184C426.146 197.352 427.955 197.92 429.906 199.196C431.198 200.041 431.934 200.637 432.273 201.017L432.311 201.06L432.354 201.102C439.063 207.566 446.37 214.189 454.274 220.972L455.867 222.339L458.082 221.627L464.445 219.582C467.343 218.65 469.708 218.423 471.588 218.603C473.364 218.772 475.232 219.357 477.226 220.661C480.683 222.921 481.53 224.535 480.901 225.719C480.18 227.076 477.669 228.585 472.73 230.172L469.019 231.364Z" fill="#C4CBF5" stroke="#C4CBF5" stroke-width="4"/>
<path d="M337.384 222.017C353.06 229.83 365.498 240.199 372.969 250.555C380.502 260.997 382.678 270.933 379.013 278.288C375.348 285.643 366.104 289.887 353.231 290.159C340.464 290.43 324.696 286.741 309.021 278.929C293.345 271.116 280.906 260.747 273.435 250.391C265.903 239.949 263.726 230.013 267.391 222.658C271.057 215.303 280.301 211.059 293.173 210.787C305.94 210.516 321.708 214.205 337.384 222.017Z" fill="#DDE2FF" stroke="#C4CBF5" stroke-width="4"/>
<path d="M261.097 188.743L293 268.5L298.5 272.5L307 277.5L314.5 280.5L278.494 187.279C278.196 186.508 277.455 186 276.628 186L262.954 186C261.539 186 260.572 187.429 261.097 188.743Z" fill="#DDE2FF" stroke="#C4CBF5" stroke-width="4"/>
<path d="M296.897 171.111L344.285 289.463C344.418 289.795 344.718 290.031 345.072 290.081L347.93 290.49C347.977 290.496 348.024 290.5 348.071 290.5L355 290.5L358.924 290.009C358.975 290.003 359.025 289.993 359.074 289.978L362.5 289L365.084 287.892C365.59 287.675 365.826 287.089 365.61 286.582L315.864 169.519C315.7 169.133 315.314 168.891 314.895 168.911L297.777 169.74C297.09 169.774 296.641 170.473 296.897 171.111Z" fill="#DDE2FF" stroke="#C4CBF5" stroke-width="4"/>
<path d="M286.166 201.956L313.169 193.293C314.671 192.81 316.28 193.638 316.763 195.14C317.245 196.643 316.417 198.252 314.915 198.734L287.912 207.398L286.166 201.956Z" fill="#C4CBF5" stroke="#C4CBF5" stroke-width="4"/>
<path d="M297.43 230.854L323.958 220.829C325.434 220.271 327.083 221.016 327.641 222.492C328.199 223.968 327.454 225.617 325.978 226.175L299.451 236.2L297.43 230.854Z" fill="#C4CBF5" stroke="#C4CBF5" stroke-width="4"/>
<path d="M309.079 258.519L332.47 248.859C333.929 248.256 335.6 248.95 336.202 250.409C336.805 251.867 336.11 253.538 334.652 254.141L311.26 263.801L309.079 258.519Z" fill="#C4CBF5" stroke="#C4CBF5" stroke-width="4"/>
</svg>
