<svg width="560" height="560" viewBox="0 0 560 560" fill="none" xmlns="http://www.w3.org/2000/svg">
<circle cx="277.481" cy="300.406" r="175.5" fill="#F1F3FF"/>
<circle cx="137.006" cy="153.904" r="11" fill="#F1F3FF"/>
<circle cx="184.531" cy="105.5" r="20.5" fill="#F1F3FF"/>
<circle cx="116.481" cy="413.405" r="19.5" fill="#F1F3FF"/>
<circle cx="456.505" cy="352.5" r="5.5" fill="#F1F3FF"/>
<path d="M306.771 152.442C306.192 152.319 306.192 151.491 306.771 151.368L315.537 149.504C315.748 149.459 315.914 149.294 315.959 149.083L317.847 140.379C317.972 139.803 318.795 139.803 318.92 140.379L320.807 149.083C320.853 149.294 321.018 149.459 321.23 149.504L329.995 151.368C330.575 151.491 330.575 152.319 329.995 152.442L321.23 154.306C321.018 154.351 320.853 154.516 320.807 154.727L318.92 163.431C318.795 164.008 317.972 164.008 317.847 163.431L315.959 154.727C315.914 154.516 315.748 154.351 315.537 154.306L306.771 152.442Z" fill="#C4CBF5"/>
<path d="M437.796 404.158C437.998 403.207 439.355 403.207 439.557 404.158L442.564 418.365C442.637 418.711 442.907 418.983 443.253 419.058L457.313 422.121C458.257 422.327 458.257 423.673 457.313 423.879L443.253 426.942C442.907 427.017 442.637 427.289 442.564 427.635L439.557 441.842C439.355 442.793 437.998 442.793 437.796 441.842L434.789 427.635C434.716 427.289 434.446 427.017 434.101 426.942L420.04 423.879C419.096 423.673 419.096 422.327 420.04 422.121L434.101 419.058C434.446 418.983 434.716 418.711 434.789 418.365L437.796 404.158Z" fill="#C4CBF5"/>
<path d="M240.328 146.201C240.483 145.469 241.528 145.469 241.683 146.201L243.034 152.583C243.09 152.85 243.298 153.058 243.564 153.116L249.898 154.496C250.625 154.655 250.625 155.692 249.898 155.85L243.564 157.23C243.298 157.288 243.09 157.497 243.034 157.763L241.683 164.145C241.528 164.878 240.483 164.878 240.328 164.145L238.977 157.763C238.92 157.497 238.713 157.288 238.446 157.23L232.112 155.85C231.385 155.692 231.385 154.655 232.112 154.496L238.446 153.116C238.713 153.058 238.92 152.85 238.977 152.583L240.328 146.201Z" fill="#C4CBF5"/>
<path d="M174.888 355.226C197.404 348.774 184.432 353.37 197.538 348.436C207.435 342.615 217.652 337.255 229.73 334.535C239.991 332.224 239.74 332.515 250.975 333.068C256.341 334.719 260.781 338.32 261.612 342.548C262.299 346.04 255.262 351.207 250.975 353.112C234.955 360.23 242.765 356.491 231.057 359.746C209.312 365.792 185.911 376.131 176.775 392.215C171.817 400.944 170.616 411.088 174.952 419.117C181.023 430.359 199.644 439.705 218.137 438.092C225.551 437.446 234.188 436.037 241.304 433.835C248.827 431.506 253.755 429.705 260.249 426.091C275.313 417.709 293.266 406.818 307.946 398.092" stroke="#C4CBF5" stroke-width="4.36135" stroke-linecap="round" stroke-dasharray="8.72 8.72"/>
<path d="M460.313 241.62C465.648 183.367 422.75 131.818 364.497 126.482C306.243 121.146 254.694 164.045 249.359 222.298C248.162 235.37 249.394 248.109 252.685 260.066C258.113 286.81 272.944 314.651 288.693 338.366C304.476 362.134 321.29 381.917 330.808 392.529C335.915 398.224 344.377 398.955 350.419 394.293C362.907 384.658 386.178 365.636 407.917 342.064C429.592 318.561 449.97 290.297 456.384 262.141C458.33 255.566 459.664 248.705 460.313 241.62Z" fill="#F1F3FF" stroke="#C4CBF5" stroke-width="4"/>
<path d="M396.25 235.752C398.345 212.88 381.502 192.64 358.629 190.545C335.756 188.45 315.516 205.293 313.421 228.166C311.326 251.038 328.17 271.279 351.042 273.374C373.915 275.469 394.155 258.625 396.25 235.752Z" fill="white" stroke="#C4CBF5" stroke-width="4"/>
<path d="M189.229 270.369L189.232 270.435L189.239 270.499C190.435 282.061 186.299 295.792 180.769 308.221C175.268 320.587 168.522 331.37 164.817 336.936C163.825 338.427 161.931 338.881 160.387 338.01C155.127 335.045 145.701 329.393 136.165 322.019C126.599 314.622 117.076 305.607 111.468 295.949L111.433 295.889L111.394 295.831C108.593 291.7 106.476 287 105.244 281.853C99.7664 258.978 113.87 235.995 136.744 230.518C159.618 225.041 182.602 239.144 188.079 262.018C188.748 264.813 189.125 267.607 189.229 270.369Z" fill="#C4CBF5" stroke="#C4CBF5" stroke-width="4"/>
<path d="M165.125 267.514C162.684 257.317 152.438 251.029 142.24 253.471C132.043 255.913 125.755 266.159 128.197 276.356C130.639 286.554 140.885 292.841 151.082 290.399C161.28 287.958 167.567 277.712 165.125 267.514Z" fill="white" stroke="#C4CBF5" stroke-width="4"/>
</svg>
