<svg width="560" height="560" viewBox="0 0 560 560" fill="none" xmlns="http://www.w3.org/2000/svg">
<circle cx="276.5" cy="268.5" r="175.5" fill="#F1F3FF"/>
<circle cx="112" cy="150" r="11" fill="#F1F3FF"/>
<circle cx="396.5" cy="106.5" r="20.5" fill="#F1F3FF"/>
<circle cx="115.5" cy="381.5" r="19.5" fill="#F1F3FF"/>
<circle cx="464.5" cy="362.5" r="19.5" fill="#F1F3FF"/>
<circle cx="426.5" cy="384.5" r="9.5" fill="#F1F3FF"/>
<path d="M305.79 120.537C305.21 120.414 305.21 119.586 305.79 119.463L314.556 117.599C314.767 117.554 314.932 117.389 314.978 117.178L316.865 108.474C316.99 107.897 317.813 107.897 317.938 108.474L319.826 117.178C319.872 117.389 320.037 117.554 320.248 117.599L329.014 119.463C329.594 119.586 329.594 120.414 329.014 120.537L320.248 122.401C320.037 122.446 319.872 122.611 319.826 122.822L317.938 131.526C317.813 132.103 316.99 132.103 316.865 131.526L314.978 122.822C314.932 122.611 314.767 122.446 314.556 122.401L305.79 120.537Z" fill="#C4CBF5"/>
<path d="M92.2229 275.622C92.4467 274.565 93.9558 274.565 94.1796 275.622L97.5224 291.415C97.6038 291.799 97.9034 292.101 98.2878 292.185L113.917 295.589C114.967 295.818 114.967 297.315 113.917 297.544L98.2878 300.948C97.9034 301.032 97.6038 301.334 97.5224 301.718L94.1796 317.511C93.9558 318.568 92.4467 318.568 92.2229 317.511L88.8801 301.718C88.7986 301.334 88.499 301.032 88.1146 300.948L72.4851 297.544C71.4356 297.315 71.4356 295.818 72.4851 295.589L88.1146 292.185C88.499 292.101 88.7986 291.799 88.8801 291.415L92.2229 275.622Z" fill="#C4CBF5"/>
<path d="M433.345 154.622C433.568 153.565 435.078 153.565 435.301 154.622L437.251 163.835C437.333 164.22 437.633 164.521 438.017 164.605L447.161 166.597C448.21 166.826 448.21 168.323 447.161 168.551L438.017 170.543C437.633 170.627 437.333 170.928 437.251 171.313L435.301 180.526C435.078 181.583 433.568 181.583 433.345 180.526L431.395 171.313C431.313 170.928 431.014 170.627 430.629 170.543L421.485 168.551C420.436 168.323 420.436 166.826 421.485 166.597L430.629 164.605C431.014 164.521 431.313 164.22 431.395 163.835L433.345 154.622Z" fill="#C4CBF5"/>
<path d="M473.658 302.331L476.721 316.798L490.981 319.905L476.721 323.011L473.658 337.479L470.596 323.011L456.335 319.905L470.596 316.798L473.658 302.331Z" fill="white"/>
<path d="M197.533 196.873L197.584 196.899L197.637 196.922C203.596 199.515 207.885 201.759 210.839 203.735C213.843 205.744 215.235 207.323 215.75 208.491C216.17 209.445 216.075 210.266 215.363 211.293C214.56 212.452 213.05 213.715 210.832 215.151C208.705 216.529 206.129 217.941 203.278 219.504L203.041 219.634C200.123 221.234 196.957 222.977 193.875 224.926C187.745 228.803 181.681 233.655 178.36 240.232C175.011 246.865 175.064 254.54 176.042 261.639C176.534 265.209 177.272 268.711 177.978 271.936C178.069 272.35 178.159 272.759 178.247 273.162C178.856 275.933 179.409 278.447 179.754 280.676C180.155 283.269 180.224 285.194 179.908 286.507C179.759 287.129 179.542 287.528 179.306 287.792C179.081 288.043 178.754 288.269 178.207 288.418C177.011 288.743 174.905 288.659 171.377 287.599C167.939 286.566 163.414 284.692 157.517 281.775C141.489 270.551 130.419 259.105 124.817 247.651C119.252 236.271 119.038 224.809 124.885 213.23C136.522 190.185 168.871 182.4 197.533 196.873Z" fill="#F1F3FF" stroke="#C4CBF5" stroke-width="4"/>
<path d="M58.7261 189.037L59.9217 188.938C83.8287 186.96 107.756 192.506 128.355 204.8V204.8" stroke="#C4CBF5" stroke-width="4"/>
<path d="M51.4536 202.687L53.4473 202.516C77.0778 200.483 100.757 205.829 121.223 217.815V217.815" stroke="#C4CBF5" stroke-width="4"/>
<path d="M242.642 272.693C235.782 286.28 228.026 297.293 217.931 302.839C208.014 308.286 195.411 308.674 178.236 300.001C156.22 288.883 148.541 258.57 161.978 231.96C175.405 205.369 204.328 193.551 226.339 204.63C244.108 214.765 251.25 225.155 252.623 235.977C254.024 247.007 249.535 259.043 242.642 272.693Z" fill="#DDE2FF" stroke="#C4CBF5" stroke-width="4"/>
<ellipse cx="212.332" cy="257.252" rx="38.238" ry="52.6208" transform="rotate(-155.936 212.332 257.252)" fill="white"/>
<path d="M247.282 275.035C240.559 288.349 230.501 298.308 219.759 303.693C209.017 309.078 197.726 309.842 188.285 305.075C178.844 300.308 172.756 290.768 170.713 278.926C168.67 267.085 170.713 253.079 177.436 239.766C184.159 226.453 194.217 216.493 204.959 211.108C215.701 205.723 226.992 204.959 236.432 209.727C245.873 214.494 251.961 224.034 254.005 235.875C256.048 247.716 254.004 261.722 247.282 275.035Z" fill="white" stroke="#C4CBF5" stroke-width="4"/>
<path d="M218.088 241.376C220.147 237.298 224.657 235.781 228.003 237.47C231.349 239.16 232.805 243.69 230.746 247.768C228.686 251.847 224.177 253.364 220.83 251.674C217.484 249.984 216.028 245.455 218.088 241.376Z" fill="#C4CBF5" stroke="#C4CBF5" stroke-width="4"/>
<path d="M203.258 270.738C205.318 266.659 209.828 265.142 213.174 266.832C216.52 268.522 217.976 273.051 215.917 277.13C213.857 281.209 209.347 282.726 206.001 281.036C202.655 279.346 201.199 274.817 203.258 270.738Z" fill="#C4CBF5" stroke="#C4CBF5" stroke-width="4"/>
<path d="M306.736 260.584L306.801 260.551L306.864 260.514C343.676 238.588 387.663 245.855 405.433 275.689C423.204 305.523 408.645 347.663 371.833 369.589L371.783 369.619L371.735 369.652C366.501 373.196 362.367 375.442 359.099 376.657C355.813 377.879 353.617 377.98 352.126 377.542C350.719 377.129 349.614 376.138 348.701 374.35C347.761 372.511 347.106 369.976 346.608 366.786C346.113 363.614 345.797 359.967 345.454 355.956L345.436 355.742C345.101 351.817 344.739 347.577 344.156 343.254C342.97 334.464 340.848 325.145 336.017 317.036C331.19 308.931 324.015 302.574 316.858 297.277C313.349 294.68 309.808 292.312 306.527 290.118L306.317 289.978C302.957 287.731 299.901 285.682 297.349 283.708C294.781 281.723 292.861 279.918 291.689 278.204C290.547 276.534 290.206 275.094 290.51 273.686C290.83 272.197 291.953 270.354 294.584 268.107C297.2 265.873 301.135 263.388 306.736 260.584Z" fill="#F1F3FF" stroke="#8B94E4" stroke-width="4"/>
<path d="M479.044 219.143L478.304 220.552C463.508 248.735 440.271 271.587 411.845 285.91V285.91" stroke="#C4CBF5" stroke-width="4"/>
<path d="M468.931 201.28L467.704 203.635C453.166 231.547 430.331 254.264 402.344 268.658V268.658" stroke="#C4CBF5" stroke-width="4"/>
<path d="M254.011 283.922L264.867 277.455L273.75 272.165" stroke="#C4CBF5" stroke-width="4"/>
<path d="M269.223 273.565L269.308 273.525L269.39 273.476C297.899 256.495 337.686 269.703 358.06 303.908C378.428 338.104 371.102 379.366 342.612 396.355C318.897 409.613 301.959 410.298 288.515 403.893C274.867 397.39 264.303 383.371 253.919 365.938C243.587 348.592 236.415 330.653 237.287 314.539C237.72 306.53 240.14 298.961 245.18 292.082C250.23 285.19 257.982 278.893 269.223 273.565Z" fill="#DDE2FF" stroke="#C4CBF5" stroke-width="4"/>
<path d="M247.998 369.466C237.807 352.355 233.77 333.864 235.397 317.849C237.025 301.833 244.285 288.431 256.561 281.12C268.836 273.808 284.078 273.807 298.936 280.003C313.794 286.199 328.13 298.555 338.322 315.666C348.514 332.777 352.551 351.268 350.923 367.283C349.295 383.299 342.035 396.7 329.76 404.012C317.484 411.324 302.242 411.325 287.384 405.129C272.527 398.933 258.19 386.576 247.998 369.466Z" fill="white" stroke="#C4CBF5" stroke-width="4"/>
<path d="M309.712 354.471C312.225 358.69 310.842 364.146 306.624 366.659L247.071 402.131C242.852 404.643 237.396 403.26 234.883 399.042C232.371 394.824 233.753 389.367 237.972 386.855L297.525 351.383C301.743 348.87 307.2 350.253 309.712 354.471Z" fill="#F1F3FF" stroke="#C4CBF5" stroke-width="4"/>
<path d="M284.712 316.471C287.225 320.69 285.842 326.146 281.624 328.659L222.071 364.13C217.852 366.643 212.396 365.26 209.883 361.042C207.371 356.824 208.753 351.367 212.972 348.854L272.525 313.383C276.743 310.87 282.2 312.253 284.712 316.471Z" fill="#F1F3FF" stroke="#C4CBF5" stroke-width="4"/>
</svg>
