<svg width="560" height="560" viewBox="0 0 560 560" fill="none" xmlns="http://www.w3.org/2000/svg">
<circle cx="277.5" cy="308.494" r="175.5" fill="#F1F3FF"/>
<circle cx="113" cy="189.994" r="11" fill="#F1F3FF"/>
<circle cx="397.5" cy="146.494" r="20.5" fill="#F1F3FF"/>
<circle cx="116.5" cy="421.494" r="19.5" fill="#F1F3FF"/>
<circle cx="465.5" cy="402.494" r="19.5" fill="#F1F3FF"/>
<circle cx="427.5" cy="424.494" r="9.5" fill="#F1F3FF"/>
<path d="M306.79 160.531C306.21 160.407 306.21 159.58 306.79 159.457L315.556 157.593C315.767 157.548 315.932 157.383 315.978 157.172L317.866 148.468C317.991 147.891 318.814 147.891 318.939 148.468L320.826 157.172C320.872 157.383 321.037 157.548 321.248 157.593L330.014 159.457C330.594 159.58 330.594 160.407 330.014 160.531L321.248 162.395C321.037 162.44 320.872 162.604 320.826 162.815L318.939 171.519C318.814 172.096 317.991 172.096 317.866 171.519L315.978 162.815C315.932 162.604 315.767 162.44 315.556 162.395L306.79 160.531Z" fill="#C4CBF5"/>
<path d="M93.2231 315.616C93.4469 314.558 94.956 314.558 95.1798 315.616L98.5226 331.408C98.6041 331.793 98.9037 332.094 99.2881 332.178L114.918 335.583C115.967 335.812 115.967 337.309 114.918 337.537L99.2881 340.942C98.9037 341.026 98.6041 341.327 98.5226 341.712L95.1798 357.505C94.956 358.562 93.4469 358.562 93.2231 357.505L89.8803 341.712C89.7989 341.327 89.4993 341.026 89.1149 340.942L73.4854 337.537C72.4358 337.309 72.4359 335.812 73.4854 335.583L89.1149 332.178C89.4993 332.094 89.7989 331.793 89.8803 331.408L93.2231 315.616Z" fill="#C4CBF5"/>
<path d="M168.457 107.562C168.581 106.974 169.42 106.974 169.544 107.562L171.401 116.335C171.446 116.549 171.613 116.716 171.826 116.763L180.509 118.654C181.092 118.781 181.092 119.613 180.509 119.74L171.826 121.631C171.613 121.678 171.446 121.845 171.401 122.059L169.544 130.832C169.42 131.42 168.581 131.42 168.457 130.832L166.6 122.059C166.555 121.845 166.388 121.678 166.175 121.631L157.492 119.74C156.909 119.613 156.909 118.781 157.492 118.654L166.175 116.763C166.388 116.716 166.555 116.549 166.6 116.335L168.457 107.562Z" fill="#C4CBF5"/>
<path d="M434.345 194.616C434.569 193.558 436.078 193.558 436.302 194.616L438.252 203.829C438.333 204.214 438.633 204.515 439.017 204.599L448.161 206.591C449.211 206.819 449.211 208.316 448.161 208.545L439.017 210.537C438.633 210.621 438.333 210.922 438.252 211.307L436.302 220.52C436.078 221.577 434.569 221.577 434.345 220.52L432.395 211.307C432.313 210.922 432.014 210.621 431.629 210.537L422.485 208.545C421.436 208.316 421.436 206.819 422.485 206.591L431.629 204.599C432.014 204.515 432.313 204.214 432.395 203.829L434.345 194.616Z" fill="#C4CBF5"/>
<path d="M474.659 342.324L477.721 356.792L491.982 359.898L477.721 363.005L474.659 377.472L471.596 363.005L457.336 359.898L471.596 356.792L474.659 342.324Z" fill="white"/>
<path d="M258.676 136.918C261.865 148.683 254.426 161.117 241.794 164.541C229.162 167.965 216.462 160.989 213.273 149.224C210.084 137.459 217.523 125.025 230.156 121.601C242.788 118.177 255.488 125.152 258.676 136.918Z" fill="#C4CBF5" stroke="#8B94E4" stroke-width="4"/>
<path d="M228.282 143.181L235.759 140.156L249.704 136.377C260.31 133.502 271.44 133.143 282.209 135.328C286.21 136.14 290.133 137.297 293.934 138.787L308.057 144.322L316.484 148.867C322.873 152.313 328.828 156.509 334.222 161.367C340.427 166.956 345.834 173.371 350.293 180.432L358.356 193.2L374.199 227.29L385.13 251.379L402.415 279.961L415.803 302.287L426.038 316.975C429.168 321.466 433.85 324.638 439.182 325.88C443.201 326.815 446.878 328.856 449.799 331.77L454.854 336.815C455.543 337.502 456.166 338.253 456.713 339.057C459.953 343.815 460.282 349.979 457.567 355.055L457.223 355.698C455.42 359.068 452.513 361.716 448.99 363.198L425.129 373.237L388.959 385.965L325.236 404.812L288.904 414.66L237.91 426.906L192.403 436.315L167.133 439.722C162.774 440.31 158.395 438.783 155.347 435.611C152.585 432.737 151.202 428.808 151.554 424.837L151.967 420.191C152.389 415.429 154.747 411.048 158.49 408.073C162.171 405.146 164.516 400.857 164.992 396.178L167.297 373.508L167.297 343.687L163.517 302.672L161.509 273.605L160.46 261.182C159.833 253.752 159.812 246.283 160.397 238.849L160.671 235.374C161.331 226.987 162.972 218.706 165.56 210.7C167.879 203.528 170.945 196.618 174.706 190.086L175.794 188.196C179.435 181.875 183.744 175.963 188.649 170.562C193.697 165.004 199.346 160.021 205.49 155.705L206.259 155.165C213.12 150.345 220.509 146.325 228.282 143.181Z" fill="#DDE2FF" stroke="#8B94E4" stroke-width="5.10414"/>
<path d="M228.273 143.148L235.751 140.124L249.695 136.344C260.301 133.47 271.432 133.11 282.201 135.295C286.201 136.107 290.124 137.264 293.925 138.754L308.048 144.29L316.475 148.834C322.864 152.28 328.819 156.476 334.213 161.334C340.418 166.923 345.826 173.338 350.285 180.399L358.347 193.168L374.19 227.258L385.122 251.347L402.406 279.928L415.794 302.254L424.891 314.701C428.903 320.191 434.8 324.009 441.451 325.424L442.059 325.553C446.312 326.457 450.259 328.444 453.519 331.32L455.427 333.004C458.01 335.283 459.842 338.291 460.683 341.631C461.525 344.975 461.333 348.496 460.134 351.729L460.05 351.954C459.613 353.133 459.052 354.262 458.378 355.322L458.032 355.866C455.797 359.379 452.684 362.248 449 364.188L442.757 367.477L430.891 373.727L397.622 388.727L375.122 397.727L355.622 405.227L339.122 410.727L322.122 416.727L307.622 420.727L297.622 423.227L270.622 428.727L245.122 433.727L197.122 440.625L182.449 442.248C179.574 442.566 176.671 442.557 173.798 442.22L166.399 441.353C162.384 440.882 158.657 439.031 155.856 436.116C152.734 432.868 150.991 428.538 150.991 424.034L150.991 422.455C150.991 421.305 151.084 420.157 151.269 419.022L151.374 418.376C152.191 413.362 154.29 408.645 157.47 404.682L159.602 402.025C166.126 393.894 169.425 383.644 168.869 373.234L167.288 343.654L163.509 302.639L161.5 273.573L160.451 261.149C159.824 253.719 159.803 246.25 160.389 238.816L160.662 235.342C161.323 226.954 162.964 218.673 165.552 210.668C167.871 203.495 170.936 196.586 174.698 190.053L175.786 188.164C179.426 181.842 183.736 175.93 188.64 170.53C193.689 164.971 199.337 159.988 205.482 155.672L206.25 155.132C213.112 150.313 220.5 146.292 228.273 143.148Z" fill="#F1F3FF" stroke="#8B94E4" stroke-width="4"/>
<path d="M435.071 351.403C435.455 352.791 435.047 354.443 433.748 356.368C432.451 358.289 430.31 360.412 427.38 362.695C421.523 367.257 412.609 372.384 401.289 377.754C378.655 388.491 346.49 400.159 310.163 410.206C273.835 420.252 240.247 426.77 215.312 429.189C202.841 430.398 192.559 430.58 185.19 429.675C181.504 429.223 178.577 428.501 176.477 427.519C174.373 426.536 173.174 425.328 172.79 423.94C172.406 422.552 172.814 420.9 174.114 418.975C175.411 417.054 177.551 414.931 180.481 412.648C186.338 408.086 195.252 402.959 206.573 397.588C229.207 386.852 261.371 375.184 297.699 365.137C334.026 355.09 367.615 348.573 392.549 346.154C405.02 344.944 415.302 344.763 422.671 345.668C426.358 346.12 429.285 346.842 431.385 347.823C433.489 348.807 434.687 350.015 435.071 351.403Z" fill="#C4CBF5" stroke="#8B94E4"/>
<path d="M281.606 395.087L280.121 393.5C278.538 391.809 277.186 389.914 276.101 387.867C275.36 386.468 274.747 385.004 274.27 383.494L271.695 375.341L277.736 373.195L283.792 370.946L298.69 366.931L315.468 362.466L325.339 360.321L325.765 361.779C327.194 366.667 327.857 371.748 327.73 376.84L327.382 380.486C326.971 384.798 325.507 388.943 323.117 392.556L322.99 392.748C322.015 394.224 320.881 395.588 319.61 396.818C316.055 400.255 311.537 402.528 306.657 403.333L304.874 403.627C303.356 403.877 301.817 403.984 300.279 403.945C295.233 403.82 290.35 402.139 286.296 399.132L285.382 398.455C284.025 397.448 282.761 396.321 281.606 395.087Z" fill="#DDE2FF" stroke="#8B94E4" stroke-width="4"/>
</svg>
