<svg width="560" height="560" viewBox="0 0 560 560" fill="none" xmlns="http://www.w3.org/2000/svg">
<circle cx="290.5" cy="283.5" r="175.5" fill="#F1F3FF"/>
<circle cx="126" cy="165" r="11" fill="#F1F3FF"/>
<circle cx="410.5" cy="121.5" r="20.5" fill="#F1F3FF"/>
<circle cx="129.5" cy="396.5" r="19.5" fill="#F1F3FF"/>
<circle cx="478.5" cy="377.5" r="19.5" fill="#F1F3FF"/>
<circle cx="440.5" cy="399.5" r="9.5" fill="#F1F3FF"/>
<path d="M318.525 115.537C317.946 115.414 317.946 114.586 318.525 114.463L327.291 112.599C327.502 112.554 327.668 112.389 327.713 112.178L329.601 103.474C329.726 102.897 330.549 102.897 330.674 103.474L332.561 112.178C332.607 112.389 332.772 112.554 332.984 112.599L341.749 114.463C342.329 114.586 342.329 115.414 341.749 115.537L332.984 117.401C332.772 117.446 332.607 117.611 332.561 117.822L330.674 126.526C330.549 127.103 329.726 127.103 329.601 126.526L327.713 117.822C327.668 117.611 327.502 117.446 327.291 117.401L318.525 115.537Z" fill="#C4CBF5"/>
<path d="M80.2229 309.622C80.4467 308.565 81.9558 308.565 82.1796 309.622L85.5224 325.415C85.6038 325.799 85.9034 326.101 86.2878 326.185L101.917 329.589C102.967 329.818 102.967 331.315 101.917 331.544L86.2878 334.948C85.9034 335.032 85.6038 335.334 85.5224 335.718L82.1796 351.511C81.9558 352.568 80.4467 352.568 80.2229 351.511L76.8801 335.718C76.7986 335.334 76.499 335.032 76.1146 334.948L60.4851 331.544C59.4356 331.315 59.4356 329.818 60.4851 329.589L76.1146 326.185C76.499 326.101 76.7986 325.799 76.8801 325.415L80.2229 309.622Z" fill="#C4CBF5"/>
<path d="M447.345 169.622C447.568 168.565 449.078 168.565 449.301 169.622L451.251 178.835C451.333 179.22 451.633 179.521 452.017 179.605L461.161 181.597C462.21 181.826 462.21 183.323 461.161 183.551L452.017 185.543C451.633 185.627 451.333 185.928 451.251 186.313L449.301 195.526C449.078 196.583 447.568 196.583 447.345 195.526L445.395 186.313C445.313 185.928 445.014 185.627 444.629 185.543L435.485 183.551C434.436 183.323 434.436 181.826 435.485 181.597L444.629 179.605C445.014 179.521 445.313 179.22 445.395 178.835L447.345 169.622Z" fill="#C4CBF5"/>
<path d="M487.659 317.331L490.721 331.798L504.982 334.905L490.721 338.011L487.659 352.479L484.596 338.011L470.336 334.905L484.596 331.798L487.659 317.331Z" fill="white"/>
<rect x="286.846" y="182.891" width="180.208" height="194.008" rx="10.492" transform="rotate(10 286.846 182.891)" fill="white" stroke="#C4CBF5" stroke-width="4"/>
<rect x="295.457" y="195.188" width="157.917" height="137.749" rx="10.492" transform="rotate(10 295.457 195.188)" fill="#F1F3FF" stroke="#F1F3FF" stroke-width="4"/>
<rect x="112.683" y="214.184" width="180.208" height="194.008" rx="10.492" transform="rotate(-10 112.683 214.184)" fill="white" stroke="#C4CBF5" stroke-width="4"/>
<rect x="124.98" y="222.795" width="157.917" height="137.749" rx="10.492" transform="rotate(-10 124.98 222.795)" fill="#F1F3FF" stroke="#F1F3FF" stroke-width="4"/>
<rect x="186.613" y="167" width="214.934" height="231.453" rx="12.1655" fill="white" stroke="#C4CBF5" stroke-width="4"/>
<rect x="199.319" y="179.707" width="188.25" height="164.107" rx="12.1655" fill="#F1F3FF" stroke="#C4CBF5" stroke-width="4"/>
<circle cx="317.607" cy="218.976" r="14.8578" fill="white"/>
<path d="M336.436 249.308C337.417 247.764 339.669 247.764 340.649 249.308L372.956 300.177C374.011 301.838 372.817 304.01 370.849 304.01H306.237C304.269 304.01 303.075 301.838 304.13 300.177L336.436 249.308Z" fill="#C4CBF5"/>
<path d="M263.407 216.765C263.594 216.449 264.049 216.442 264.245 216.753L317.611 301.619C317.817 301.945 317.582 302.37 317.196 302.37H213.904C213.525 302.37 213.289 301.958 213.482 301.631L263.407 216.765Z" fill="#DDE2FF" stroke="#DDE2FF" stroke-width="4"/>
<path d="M262.796 212.408C263.193 211.716 264.186 211.701 264.604 212.381L278.903 235.689C279.499 236.66 278.339 237.753 277.405 237.099L273.07 234.065C272.698 233.804 272.2 233.813 271.836 234.085L265.658 238.72C265.353 238.948 264.948 238.994 264.6 238.839L257.403 235.641C257.129 235.519 256.815 235.52 256.542 235.644L249.93 238.649C249.001 239.072 248.075 238.055 248.584 237.169L262.796 212.408Z" fill="white"/>
<path d="M339.624 245.779C339.33 245.266 338.593 245.255 338.283 245.76L327.674 263.052C327.231 263.774 328.093 264.584 328.786 264.099L331.964 261.874C332.258 261.668 332.655 261.69 332.925 261.926L337.455 265.89C337.702 266.107 338.059 266.145 338.347 265.985L343.602 263.065C343.818 262.945 344.078 262.935 344.304 263.037L349.17 265.249C349.86 265.563 350.546 264.808 350.169 264.151L339.624 245.779Z" fill="white"/>
<path d="M229.811 313.526H279.112" stroke="#DDE2FF" stroke-width="4" stroke-linecap="round"/>
<path d="M203 304H386" stroke="#C4CBF5" stroke-width="4" stroke-linecap="square"/>
<path d="M265.601 321.293H297.35" stroke="#DDE2FF" stroke-width="4" stroke-linecap="round"/>
<path d="M241.967 321.63H260.877" stroke="#DDE2FF" stroke-width="4" stroke-linecap="round"/>
<path d="M328.412 314.202H343.946" stroke="#DDE2FF" stroke-width="4" stroke-linecap="round"/>
</svg>
