<svg width="25" height="24" viewBox="0 0 25 24" fill="none" xmlns="http://www.w3.org/2000/svg">
<path d="M12.8 22.81C12.11 22.81 11.46 22.46 11 21.85L9.5 19.85C9.47 19.81 9.35 19.76 9.3 19.75H8.8C4.63 19.75 2.05 18.62 2.05 13V8C2.05 3.58 4.38 1.25 8.8 1.25H16.8C21.22 1.25 23.55 3.58 23.55 8V13C23.55 17.42 21.22 19.75 16.8 19.75H16.3C16.22 19.75 16.15 19.79 16.1 19.85L14.6 21.85C14.14 22.46 13.49 22.81 12.8 22.81Z" fill="#2A3890"/>
<path d="M3.55 8C3.55 4.42 5.22 2.75 8.8 2.75H16.8C20.38 2.75 22.05 4.42 22.05 8V13C22.05 16.58 20.38 18.25 16.8 18.25H16.3C15.75 18.25 15.23 18.51 14.9 18.95L13.4 20.95C13.05 21.41 12.55 21.41 12.2 20.95L10.7 18.95C10.39 18.54 9.81 18.25 9.3 18.25H8.8C5.1 18.25 3.55 17.52 3.55 13V8Z" fill="#2A3890"/>
<path d="M12.8 12C12.24 12 11.8 11.55 11.8 11C11.8 10.45 12.25 10 12.8 10C13.35 10 13.8 10.45 13.8 11C13.8 11.55 13.36 12 12.8 12Z" fill="white" stroke="white" stroke-linecap="round" stroke-linejoin="round"/>
<path d="M16.8 12C16.24 12 15.8 11.55 15.8 11C15.8 10.45 16.25 10 16.8 10C17.35 10 17.8 10.45 17.8 11C17.8 11.55 17.36 12 16.8 12Z" fill="white" stroke="white" stroke-linecap="round" stroke-linejoin="round"/>
<path d="M8.8 12C8.24 12 7.8 11.55 7.8 11C7.8 10.45 8.25 10 8.8 10C9.35 10 9.8 10.45 9.8 11C9.8 11.55 9.36 12 8.8 12Z" fill="white" stroke="white" stroke-linecap="round" stroke-linejoin="round"/>
</svg>
