<svg width="25" height="24" viewBox="0 0 25 24" fill="none" xmlns="http://www.w3.org/2000/svg">
<path d="M3.15 9.00994C3.15 8.81994 3.22 8.62994 3.37 8.47994L8.38 3.46994C8.67 3.17994 9.15 3.17994 9.44 3.46994C9.73 3.75994 9.73 4.23994 9.44 4.52994L4.43 9.53994C4.14 9.82994 3.66 9.82994 3.37 9.53994C3.23 9.38994 3.15 9.19994 3.15 9.00994Z" fill="#2A3890" stroke="#2A3890" stroke-linecap="round" stroke-linejoin="round"/>
<path d="M3.15001 9.01001C3.15001 8.60001 3.49001 8.26001 3.90001 8.26001L20.9 8.26001C21.31 8.26001 21.65 8.60001 21.65 9.01001C21.65 9.42001 21.31 9.76001 20.9 9.76001L3.90001 9.76001C3.49001 9.76001 3.15001 9.42001 3.15001 9.01001Z" fill="#2A3890" stroke="#2A3890" stroke-linecap="round" stroke-linejoin="round"/>
<path d="M15.14 20.0099C15.14 19.8199 15.21 19.6299 15.36 19.4799L20.37 14.4699C20.66 14.1799 21.14 14.1799 21.43 14.4699C21.72 14.7599 21.72 15.2399 21.43 15.5299L16.42 20.5399C16.13 20.8299 15.65 20.8299 15.36 20.5399C15.21 20.3899 15.14 20.1999 15.14 20.0099Z" fill="#2A3890" stroke="#2A3890" stroke-linecap="round" stroke-linejoin="round"/>
<path d="M3.15001 14.99C3.15001 14.58 3.49001 14.24 3.90001 14.24L20.9 14.24C21.31 14.24 21.65 14.58 21.65 14.99C21.65 15.4 21.31 15.74 20.9 15.74L3.90001 15.74C3.49001 15.74 3.15001 15.41 3.15001 14.99Z" fill="#2A3890" stroke="#2A3890" stroke-linecap="round" stroke-linejoin="round"/>
</svg>
