<svg width="24" height="24" viewBox="0 0 24 24" fill="none" xmlns="http://www.w3.org/2000/svg">
<mask id="path-1-inside-1_648_1914" fill="white">
<path d="M2.74999 9.00994C2.74999 8.81994 2.81999 8.62994 2.96999 8.47994L7.97999 3.46994C8.26999 3.17994 8.74999 3.17994 9.03999 3.46994C9.32999 3.75994 9.32999 4.23994 9.03999 4.52994L4.02999 9.53994C3.73999 9.82994 3.25999 9.82994 2.96999 9.53994C2.82999 9.38994 2.74999 9.19994 2.74999 9.00994Z"/>
</mask>
<path d="M2.74999 9.00994C2.74999 8.81994 2.81999 8.62994 2.96999 8.47994L7.97999 3.46994C8.26999 3.17994 8.74999 3.17994 9.03999 3.46994C9.32999 3.75994 9.32999 4.23994 9.03999 4.52994L4.02999 9.53994C3.73999 9.82994 3.25999 9.82994 2.96999 9.53994C2.82999 9.38994 2.74999 9.19994 2.74999 9.00994Z" fill="#646464"/>
<path d="M2.96999 8.47994L1.55578 7.06573L1.55578 7.06573L2.96999 8.47994ZM7.97999 3.46994L9.39421 4.88416L9.39421 4.88415L7.97999 3.46994ZM9.03999 4.52994L7.62578 3.11573L7.62578 3.11573L9.03999 4.52994ZM4.02999 9.53994L5.44421 10.9542L5.44421 10.9542L4.02999 9.53994ZM2.96999 9.53994L1.50788 10.9046L1.5314 10.9298L1.55578 10.9542L2.96999 9.53994ZM4.74999 9.00994C4.74999 9.32175 4.62905 9.64931 4.3842 9.89415L1.55578 7.06573C1.01093 7.61057 0.749992 8.31814 0.749992 9.00994L4.74999 9.00994ZM4.3842 9.89415L9.39421 4.88416L6.56578 2.05573L1.55578 7.06573L4.3842 9.89415ZM9.39421 4.88415C8.90316 5.3752 8.11683 5.3752 7.62578 4.88415L10.4542 2.05573C9.38316 0.984679 7.63683 0.984679 6.56578 2.05573L9.39421 4.88415ZM7.62578 4.88415C7.13473 4.39311 7.13473 3.60678 7.62578 3.11573L10.4542 5.94416C11.5253 4.87311 11.5253 3.12678 10.4542 2.05573L7.62578 4.88415ZM7.62578 3.11573L2.61578 8.12573L5.44421 10.9542L10.4542 5.94416L7.62578 3.11573ZM2.61578 8.12573C3.10683 7.63468 3.89316 7.63468 4.3842 8.12573L1.55578 10.9542C2.62683 12.0252 4.37316 12.0252 5.44421 10.9542L2.61578 8.12573ZM4.4321 8.1753C4.59903 8.35416 4.74999 8.63933 4.74999 9.00994L0.749992 9.00994C0.749992 9.76056 1.06095 10.4257 1.50788 10.9046L4.4321 8.1753Z" fill="#646464" mask="url(#path-1-inside-1_648_1914)"/>
<mask id="path-3-inside-2_648_1914" fill="white">
<path d="M2.75 9.01001C2.75 8.60001 3.09 8.26001 3.5 8.26001L20.5 8.26001C20.91 8.26001 21.25 8.60001 21.25 9.01001C21.25 9.42001 20.91 9.76001 20.5 9.76001L3.5 9.76001C3.09 9.76001 2.75 9.42001 2.75 9.01001Z"/>
</mask>
<path d="M2.75 9.01001C2.75 8.60001 3.09 8.26001 3.5 8.26001L20.5 8.26001C20.91 8.26001 21.25 8.60001 21.25 9.01001C21.25 9.42001 20.91 9.76001 20.5 9.76001L3.5 9.76001C3.09 9.76001 2.75 9.42001 2.75 9.01001Z" fill="#646464"/>
<path d="M4.75 9.01001C4.75 9.70458 4.19457 10.26 3.5 10.26L3.5 6.26001C1.98543 6.26001 0.75 7.49544 0.75 9.01001L4.75 9.01001ZM3.5 10.26L20.5 10.26L20.5 6.26001L3.5 6.26001L3.5 10.26ZM20.5 10.26C19.8054 10.26 19.25 9.70458 19.25 9.01001L23.25 9.01001C23.25 7.49544 22.0146 6.26001 20.5 6.26001L20.5 10.26ZM19.25 9.01001C19.25 8.31544 19.8054 7.76001 20.5 7.76001L20.5 11.76C22.0146 11.76 23.25 10.5246 23.25 9.01001L19.25 9.01001ZM20.5 7.76001L3.5 7.76001L3.5 11.76L20.5 11.76L20.5 7.76001ZM3.5 7.76001C4.19457 7.76001 4.75 8.31544 4.75 9.01001L0.75 9.01001C0.75 10.5246 1.98543 11.76 3.5 11.76L3.5 7.76001Z" fill="#646464" mask="url(#path-3-inside-2_648_1914)"/>
<mask id="path-5-inside-3_648_1914" fill="white">
<path d="M14.74 20.0099C14.74 19.8199 14.81 19.6299 14.96 19.4799L19.97 14.4699C20.26 14.1799 20.74 14.1799 21.03 14.4699C21.32 14.7599 21.32 15.2399 21.03 15.5299L16.02 20.5399C15.73 20.8299 15.25 20.8299 14.96 20.5399C14.81 20.3899 14.74 20.1999 14.74 20.0099Z"/>
</mask>
<path d="M14.74 20.0099C14.74 19.8199 14.81 19.6299 14.96 19.4799L19.97 14.4699C20.26 14.1799 20.74 14.1799 21.03 14.4699C21.32 14.7599 21.32 15.2399 21.03 15.5299L16.02 20.5399C15.73 20.8299 15.25 20.8299 14.96 20.5399C14.81 20.3899 14.74 20.1999 14.74 20.0099Z" fill="#646464"/>
<path d="M14.96 19.4799L13.5458 18.0657L13.5458 18.0657L14.96 19.4799ZM19.97 14.4699L21.3842 15.8842L21.3842 15.8842L19.97 14.4699ZM21.03 15.5299L19.6158 14.1157L19.6158 14.1157L21.03 15.5299ZM16.02 20.5399L17.4342 21.9542L17.4342 21.9542L16.02 20.5399ZM16.74 20.0099C16.74 20.3218 16.619 20.6493 16.3742 20.8942L13.5458 18.0657C13.0009 18.6106 12.74 19.3181 12.74 20.0099L16.74 20.0099ZM16.3742 20.8942L21.3842 15.8842L18.5558 13.0557L13.5458 18.0657L16.3742 20.8942ZM21.3842 15.8842C20.8932 16.3752 20.1068 16.3752 19.6158 15.8842L22.4442 13.0557C21.3732 11.9847 19.6268 11.9847 18.5558 13.0557L21.3842 15.8842ZM19.6158 15.8842C19.1247 15.3931 19.1247 14.6068 19.6158 14.1157L22.4442 16.9442C23.5153 15.8731 23.5153 14.1268 22.4442 13.0557L19.6158 15.8842ZM19.6158 14.1157L14.6058 19.1257L17.4342 21.9542L22.4442 16.9442L19.6158 14.1157ZM14.6058 19.1257C15.0968 18.6347 15.8832 18.6347 16.3742 19.1257L13.5458 21.9542C14.6168 23.0252 16.3632 23.0252 17.4342 21.9542L14.6058 19.1257ZM16.3742 19.1257C16.619 19.3706 16.74 19.6981 16.74 20.0099L12.74 20.0099C12.74 20.7018 13.0009 21.4093 13.5458 21.9542L16.3742 19.1257Z" fill="#646464" mask="url(#path-5-inside-3_648_1914)"/>
<mask id="path-7-inside-4_648_1914" fill="white">
<path d="M2.75 14.99C2.75 14.58 3.09 14.24 3.5 14.24L20.5 14.24C20.91 14.24 21.25 14.58 21.25 14.99C21.25 15.4 20.91 15.74 20.5 15.74L3.5 15.74C3.09 15.74 2.75 15.41 2.75 14.99Z"/>
</mask>
<path d="M2.75 14.99C2.75 14.58 3.09 14.24 3.5 14.24L20.5 14.24C20.91 14.24 21.25 14.58 21.25 14.99C21.25 15.4 20.91 15.74 20.5 15.74L3.5 15.74C3.09 15.74 2.75 15.41 2.75 14.99Z" fill="#646464"/>
<path d="M4.75 14.99C4.75 15.6846 4.19457 16.24 3.5 16.24L3.5 12.24C1.98543 12.24 0.75 13.4754 0.75 14.99L4.75 14.99ZM3.5 16.24L20.5 16.24L20.5 12.24L3.5 12.24L3.5 16.24ZM20.5 16.24C19.8054 16.24 19.25 15.6846 19.25 14.99L23.25 14.99C23.25 13.4754 22.0146 12.24 20.5 12.24L20.5 16.24ZM19.25 14.99C19.25 14.2954 19.8054 13.74 20.5 13.74L20.5 17.74C22.0146 17.74 23.25 16.5046 23.25 14.99L19.25 14.99ZM20.5 13.74L3.5 13.74L3.5 17.74L20.5 17.74L20.5 13.74ZM3.5 13.74C4.17715 13.74 4.75 14.2881 4.75 14.99L0.75 14.99C0.75 16.5319 2.00285 17.74 3.5 17.74L3.5 13.74Z" fill="#646464" mask="url(#path-7-inside-4_648_1914)"/>
</svg>
